<svg id="svg" xmlns="http://www.w3.org/2000/svg" xmlns:xlink="http://www.w3.org/1999/xlink" width="610" height="610" viewBox="132.396 -0.5 610.00001 610.00001"><defs><clipPath id="b"><use height="659" width="524" overflow="visible" xlink:href="#a" transform="translate(-89.453 1.643)" fill="#f0f"/></clipPath><path d="M393.76 3.5H142.74v258.714c0 161.08 140 299 251.713 341 118.286-39 251.714-175.92 251.714-337V3.5H393.76z" id="a"/></defs><use height="659" width="524" stroke-miterlimit="10" overflow="visible" xlink:href="#a" transform="translate(42.943 1.143)" fill="#fff" stroke="#002147" stroke-width="7"/><use height="659" width="524" overflow="visible" xlink:href="#a" transform="translate(42.943 1.143)" fill="none"/><path d="M483.99 46.47c-.24-.016-.466 0-.72.03-1.72.204-4.034.496-6.405.906.038.307.103.618.125.938.06.874.04 1.74-.094 2.532-.067.396-.16.796-.344 1.156-.185.36-.48.723-.97.906-.468.176-.942.105-1.312-.03-.37-.136-.7-.33-1-.563-.6-.465-1.15-1.073-1.656-1.687-.5-.606-.987-1.218-1.313-1.687-.762.255-1.485.515-2.094.813-3.766 1.85-8.76 6.247-6.843 8.438 1.842 2.106 8.062-5.216 11.28-4.53 3.22.684 15.204 1.106 16.095-.47.835-1.476-1.168-6.52-4.75-6.75zm-9.094 1.31c-.853.174-1.692.357-2.5.564.183.27.41.58.78 1.032.455.55.953 1.07 1.345 1.375.128.1.195.14.28.188.04-.105.095-.185.127-.375.09-.533.116-1.324.063-2.094-.016-.23-.066-.465-.094-.69z" fill="#002147"/><path d="M613.708 99.97c-1.377.065-2.69.5-4.187 1.25-2.55 1.272-5.51 3.446-9.53 6-1.22.772-2.6 1.58-4.032 2.405-1.377 3.79-2.304 8.442-2.5 14.187-.28 8.223 6.704 16.024 6.157 17.53-.548 1.507-9.863 22.336-14.657 24.938-4.794 2.603-9.3 2.47-11.218 5.344-1.917 2.877-4.242 6.283-2.188 6.97 2.054.684 10.19 2.342 13.655 2.342 3.466 0 26.062-36.304 30.72-38.906 3.11-1.738 3.27-18.93 3.78-30.812-1.723-4.4-2.1-8.125-3.406-10.97-.904-.215-1.767-.32-2.594-.28z" fill="#002147"/><path d="M497.177 106.687c-.912.27-1.777.622-2.594 1.094-9.725 5.617-21.802 5.067-27.28 13.97-5.48 8.9-.417 13.415-4.25 19.03-3.837 5.616-5.605 8.635-3.688 10.69 1.918 2.053 2.473 6.44 3.843 6.03 1.37-.41 1.927-4.65 3.844-4.375 1.917.274 4.5-.41 4.5-1.094 0-.684.417-14.11 2.468-19.31 2.05-5.2-1.104-9.6 33-8.095 4.883-.073 8.318-.295 10.75-.625-12.025-3.155-16.762-10.477-20.594-17.313z" fill="#002147"/><path d="M497.958 19.47c-11.606.047-13.455 6.555-19.687 8.78-7.67 2.74-16.833 5.856-17.655 7.5-.418.837.07 1.53.625 2.187l.156-.218c.377-.566.718-.57 1.094-.69.375-.117.796-.2 1.25-.25.908-.1 1.93-.117 2.843.22.157.058.325.135.532.344.207.21.388.73.28 1.094-.106.365-.302.49-.437.594-.134.105-.256.193-.375.25-.475.23-1.016.35-1.625.5-1.217.3-2.562.53-2.562.53l-.25.033c-.288 1.84-.443 6.352 5.844 8.282 6.917 2.124 17.687-2.666 17.687 1.03 0 3.7-16.726 3.067-15.22 6.97 1.508 3.903 9.716-2.04 19.44 2 9.724 4.04 1.393 35.47 7.968 47.25 4.02 7.206 8.58 14.696 21.718 17.562-.01-.213-.06-1.44-.062-1.47-.457-.467-6.617-6.81-9.624-14.78-1.56-4.136-2.21-8.7-.47-12.938 1.74-4.238 5.834-7.976 13.314-10.5l.656 1.906c-7.13 2.407-10.646 5.74-12.125 9.344-1.48 3.603-.953 7.646.5 11.5 2.908 7.708 9.47 14.375 9.47 14.375l.25.28.03.376s.68 13.404.907 27.03c.114 6.815.103 13.686-.156 19-.13 2.66-.306 4.917-.593 6.626-.143.854-.315 1.566-.53 2.156-.217.59-.42 1.13-1.095 1.47-1.894.946-5.562 2.54-8.47 4.53-1.453.996-2.69 2.092-3.406 3.157-.604.9-.762 1.7-.594 2.562 1.846.702 3.76.676 5.594.28 1.987-.428 3.702-1.19 5.188-1.28.275-.017 1.353-.298 2.593-.782 1.24-.483 2.705-1.146 4.094-1.937 1.39-.79 2.708-1.7 3.625-2.593.918-.894 1.37-1.767 1.375-2.344.024-2.147.498-4.796 1.155-7.22.658-2.423 1.438-4.558 2.438-5.843-.086.11.07-.112.187-.468.118-.357.257-.888.407-1.5.3-1.228.644-2.898 1-4.876.71-3.956 1.463-9.104 2.03-14.375.57-5.27.944-10.676.907-15.064-.018-2.194-.13-4.124-.375-5.657-.247-1.534-.643-2.656-1-3.126l1.592-1.22c.748.98 1.105 2.345 1.375 4.033.013.08.02.17.03.25 5.046-.38 10.734-1.118 17.22-2.312 44.65-8.218 48.494-26.037 60-22.75 3.22 6.3 1.288 15.558 15.875 27.063 14.587 11.506 18.974 8.01 20.687 11.844 1.71 3.835.77 25.142-.876 26.375-4.247.273-15.145 4.313-8.843 7.874 6.3 3.56 15.87 2.466 19.157 0 3.287-2.463 8.225-30.12 4.937-35.874-3.286-5.753-6.644-8.792-9.656-16.188-3.015-7.396-4.852-28.2-8.688-34.5-.564-.928-1.088-1.844-1.594-2.72 10.05.13 25.693-12.06 15.437-31.936-22.05-37.528-57.67-21.647-57.53-18.907.136 2.738 4.475 1.52 10.405 1.093 27.803-1.917 38.085 18.235 38.907 27 .822 8.766-6.852 12.313-10.688 12.313-3.835 0-12.063-2-12.063-2-1.293-.51-2.698-1.043-4.25-1.562-16.367-5.48-88.19 5.685-97.844-2.875-4.153-3.68-5.097-11.856-6.47-20.312.11 2.11.136 4.575.095 7-.043 2.518-.14 4.993-.28 7-.142 2.01-.28 3.425-.533 4.28-.426 1.45-1.487 2.833-2.75 4.22-1.262 1.388-2.737 2.76-4.125 3.938-1.117.95-1.307 1.99-1.437 3.125-.065.568-.088 1.122-.25 1.72-.162.596-.585 1.32-1.313 1.624-.652.272-1.43.235-2.125 0-.695-.235-1.38-.635-2.156-1.22-1.55-1.166-3.45-3.04-6.126-5.718-3.1-3.1-3.44-8.635-3.125-13.563.157-2.464.52-4.812.874-6.625.176-.907.34-1.673.5-2.28.16-.61.27-.995.437-1.345.61-1.284 1.112-2.916.53-5.063-1.062-.474-1.91-1.313-2.405-2.407-.622-1.37-.928-3.023-1.063-4.656-.135-1.632-.105-3.245.062-4.562.083-.658.195-1.226.343-1.718.15-.492.255-.903.782-1.313l1.218 1.563c.028-.022.047-.02.063-.032-.03.06-.075.18-.125.344-.1.33-.208.828-.28 1.406-.147 1.158-.186 2.673-.064 4.157.12 1.484.404 2.934.874 3.97.47 1.035 1.02 1.552 1.687 1.656l.594.094.188.593c.915 2.898.137 5.272-.594 6.813-.005.01-.166.442-.312 1s-.3 1.318-.47 2.187c-.34 1.74-.692 3.988-.843 6.344-.302 4.713.29 9.79 2.53 12.03 2.665 2.667 4.578 4.478 5.938 5.5.68.514 1.225.815 1.595.94.37.124.518.133.687.06.093-.037.078-.025.155-.31.078-.285.116-.81.188-1.44.144-1.26.503-3.026 2.125-4.404 1.35-1.15 2.8-2.466 3.97-3.75 1.167-1.284 2.053-2.56 2.31-3.438.092-.306.3-1.91.44-3.875.136-1.965.238-4.393.28-6.876.042-2.482.022-5.007-.094-7.093-.115-2.085-.368-3.81-.594-4.374-.754-1.888-1.482-5.073-2.218-8-.37-1.464-.735-2.845-1.094-3.907-.36-1.062-.857-1.85-.813-1.813l.563-.688c-2.3-3.165-5.48-5.516-10.063-6.47-3.89-.808-7.07-1.135-9.75-1.124zM485.49 30.72c1.084-.03 2.173.102 3.125.467 3.807 1.46 3.074 2.925 3.53 2.47.022-.022.054-.027.063-.032-.188.356-2.417 3.003-6.093 2.844-4.2-.183-5.85-1.196-6.032-1.47-.184-.274 1.032-.453 1.032-1 0-.547.337-1.235-1.032-1.53-1.027-.223 2.154-1.667 5.407-1.75z" fill="#002147"/><path d="M484.25 32.797c0 .252 1.027.525 1.096.914.068.39-1.004.71-.867 1.073.136.365 1.573 1.393 2.464.753.892-.64 1.325-1.05 1.005-1.757-.32-.71-1.394-1.645-2.306-1.485-.914.16-1.393.114-1.393.502z" fill="#002147"/><path d="M230.927 46.47c-.24-.016-.466 0-.72.03-1.725.205-4.058.494-6.436.906.04.307.104.618.126.938.06.874.07 1.74-.063 2.532-.066.396-.16.796-.343 1.156-.185.36-.51.723-1 .906-.468.176-.943.105-1.313-.03-.37-.136-.668-.33-.97-.563-.6-.465-1.15-1.073-1.655-1.687-.506-.613-.986-1.247-1.313-1.72-.778.26-1.508.542-2.126.845-3.766 1.85-8.762 6.247-6.844 8.438 1.842 2.106 8.093-5.216 11.312-4.53 3.22.684 15.203 1.106 16.094-.47.836-1.476-1.167-6.52-4.75-6.75zm-9.094 1.31c-.863.176-1.713.354-2.53.564.182.27.41.58.78 1.032.454.55.952 1.07 1.344 1.375.13.1.224.14.313.188.038-.105.093-.185.125-.375.09-.533.084-1.324.03-2.094-.015-.23-.038-.466-.062-.69z" fill="#002147"/><path d="M360.646 99.97c-1.37.066-2.697.504-4.188 1.25-2.55 1.272-5.512 3.446-9.53 6-1.218.772-2.598 1.58-4.032 2.405-1.378 3.79-2.305 8.44-2.5 14.187-.28 8.223 6.703 16.024 6.156 17.53-.55 1.507-9.863 22.336-14.657 24.938-4.794 2.603-9.332 2.47-11.25 5.344-1.917 2.877-4.242 6.283-2.188 6.97 2.055.684 10.19 2.342 13.657 2.342 3.466 0 26.06-36.304 30.718-38.906 3.112-1.738 3.303-18.93 3.813-30.812-1.73-4.4-2.132-8.125-3.438-10.97-.898-.21-1.74-.32-2.562-.28z" fill="#002147"/><path d="M244.115 106.687c-.916.27-1.806.62-2.625 1.094-9.725 5.617-21.77 5.067-27.25 13.97-5.48 8.9-.416 13.415-4.25 19.03-3.836 5.616-5.605 8.635-3.688 10.69 1.917 2.053 2.473 6.44 3.843 6.03 1.37-.41 1.895-4.65 3.812-4.375 1.918.274 4.532-.41 4.532-1.094 0-.684.416-14.11 2.467-19.31 2.05-5.2-1.104-9.6 33-8.095 4.884-.073 8.32-.295 10.75-.625-12.025-3.155-16.76-10.477-20.593-17.313z" fill="#002147"/><path d="M244.865 19.47c-11.607.047-13.456 6.555-19.688 8.78-7.67 2.74-16.834 5.856-17.656 7.5-.416.837.095 1.53.657 2.187l.156-.218c.378-.566.72-.57 1.094-.69.376-.117.796-.2 1.25-.25.9-.097 1.906-.106 2.813.22.01.004.02-.004.03 0 .153.056.334.143.532.344.206.21.387.73.28 1.094-.106.365-.302.49-.437.594-.135.105-.256.193-.375.25-.475.23-1.016.35-1.625.5-1.217.3-2.563.53-2.563.53l-.25.033c-.287 1.84-.442 6.352 5.844 8.282 6.917 2.124 17.656-2.666 17.656 1.03 0 3.7-16.694 3.067-15.187 6.97 1.507 3.903 9.714-2.04 19.437 2 9.725 4.04 1.363 35.47 7.938 47.25 4.023 7.21 8.597 14.7 21.75 17.562-.01-.213-.06-1.44-.063-1.47-.458-.467-6.618-6.81-9.625-14.78-1.56-4.136-2.24-8.7-.5-12.938 1.74-4.238 5.864-7.976 13.344-10.5l.656 1.906c-7.13 2.407-10.646 5.74-12.125 9.344-1.48 3.603-.953 7.646.5 11.5 2.908 7.708 9.438 14.375 9.438 14.375l.28.28v.376s.71 13.404.94 27.03c.113 6.815.1 13.686-.158 19-.13 2.66-.307 4.917-.593 6.626-.144.854-.315 1.566-.532 2.156-.216.59-.417 1.13-1.093 1.47-1.894.946-5.563 2.54-8.47 4.53-1.454.996-2.72 2.092-3.438 3.157-.603.898-.76 1.7-.593 2.562 1.846.704 3.79.677 5.624.28 1.987-.428 3.67-1.19 5.156-1.28.275-.017 1.384-.298 2.625-.782 1.24-.483 2.704-1.146 4.094-1.937 1.39-.79 2.706-1.7 3.624-2.593.917-.894 1.37-1.767 1.375-2.344.024-2.147.5-4.796 1.155-7.22.657-2.423 1.438-4.558 2.437-5.843-.085.11.07-.112.188-.468.117-.357.256-.888.406-1.5.3-1.228.645-2.898 1-4.876.71-3.956 1.463-9.104 2.03-14.375.57-5.27.944-10.676.908-15.064-.02-2.194-.13-4.124-.375-5.657-.246-1.534-.674-2.656-1.033-3.126l1.594-1.22c.75.98 1.137 2.345 1.406 4.033.013.08.02.17.032.25 5.044-.38 10.733-1.118 17.218-2.312 44.65-8.218 48.463-26.037 59.97-22.75 3.218 6.3 1.318 15.558 15.905 27.063 14.588 11.506 18.976 8.01 20.69 11.844 1.71 3.835.737 25.142-.907 26.375-4.247.273-15.115 4.313-8.813 7.874 6.298 3.56 15.87 2.466 19.155 0 3.287-2.463 8.226-30.12 4.938-35.874-3.286-5.753-6.644-8.792-9.656-16.188-3.014-7.396-4.852-28.2-8.688-34.5-.566-.928-1.09-1.844-1.596-2.72 10.05.13 25.663-12.06 15.407-31.936-22.05-37.528-57.67-21.647-57.53-18.907.136 2.738 4.507 1.52 10.437 1.093 27.803-1.917 38.053 18.235 38.875 27 .822 8.766-6.852 12.313-10.688 12.313-3.834 0-12.03-2-12.03-2-1.294-.51-2.7-1.043-4.25-1.562-16.368-5.48-88.22 5.685-97.876-2.875-4.117-3.65-5.092-11.716-6.438-20.094.1 2.064.134 4.434.093 6.78-.043 2.518-.17 4.993-.312 7-.14 2.01-.247 3.425-.5 4.28-.425 1.45-1.486 2.833-2.75 4.22-1.262 1.388-2.77 2.76-4.155 3.938-1.118.95-1.308 1.99-1.438 3.125-.066.568-.09 1.122-.25 1.72-.163.596-.586 1.32-1.313 1.624-.652.272-1.398.235-2.094 0s-1.38-.635-2.156-1.22c-1.55-1.166-3.48-3.04-6.157-5.718-3.1-3.1-3.408-8.635-3.093-13.563.157-2.464.52-4.812.875-6.625.176-.907.34-1.673.5-2.28.16-.61.27-.995.436-1.345.608-1.284 1.11-2.916.53-5.063-1.07-.47-1.907-1.308-2.406-2.407-.62-1.37-.928-3.023-1.062-4.656-.135-1.632-.104-3.245.062-4.562.083-.658.195-1.226.344-1.718.15-.492.254-.903.78-1.313l1.22 1.563c.034-.026.047-.02.062-.032-.038.06-.106.18-.156.344-.1.33-.177.828-.25 1.406-.146 1.158-.216 2.673-.094 4.157.123 1.484.437 2.934.907 3.97.47 1.035.99 1.552 1.656 1.656l.624.094.187.593c.917 2.898.14 5.272-.592 6.813-.005.01-.167.442-.313 1-.147.558-.33 1.318-.5 2.187-.34 1.74-.663 3.988-.813 6.344-.3 4.713.29 9.79 2.53 12.03 2.666 2.667 4.578 4.478 5.938 5.5.68.514 1.224.815 1.594.94.37.124.517.133.687.06.095-.037.08-.025.157-.31s.115-.81.187-1.44c.144-1.26.504-3.026 2.125-4.404 1.35-1.15 2.8-2.466 3.97-3.75 1.167-1.284 2.022-2.56 2.28-3.438.09-.306.3-1.91.437-3.875.138-1.965.27-4.393.312-6.876.042-2.482.02-5.007-.094-7.093-.116-2.085-.4-3.81-.625-4.374-.754-1.888-1.45-5.073-2.187-8-.37-1.464-.735-2.845-1.095-3.907-.36-1.062-.856-1.85-.812-1.813l.562-.688c-2.297-3.165-5.48-5.516-10.062-6.47-3.89-.808-7.103-1.135-9.78-1.124zm-12.438 11.25c1.084-.03 2.174.102 3.125.467 3.806 1.46 3.073 2.925 3.53 2.47-.257.43-2.422 2.968-6.03 2.812-4.2-.183-5.85-1.196-6.032-1.47-.184-.274 1-.453 1-1 0-.547.37-1.235-1-1.53-1.028-.223 2.154-1.667 5.406-1.75zm36.125 4.5c.327 1.31.633 2.57.937 3.624-.283-1.227-.58-2.45-.94-3.624z" fill="#002147"/><path d="M231.178 32.797c0 .252 1.027.525 1.096.914.07.39-1.003.71-.866 1.073.137.365 1.574 1.393 2.465.753.89-.64 1.323-1.05 1.003-1.757-.318-.71-1.393-1.645-2.305-1.485-.914.16-1.392.114-1.392.502z" fill="#002147"/><path transform="translate(132.396 -.5)" d="M305 158.03L-88.094 546.19-3.53 646.343 305 341.687l308.53 304.657 84.564-100.157L305 158.03zm-64.47 77.064h128.44v6.97c-1.48.018-2.848.092-4.095.28l.47.656c1.484-.782 3.364-.37 4.374 1.03l4.935 6.876c1.107 1.534.752 3.674-.78 4.78l-.126.095.655 1.69h1.156c1.893 0 3.408 1.516 3.408 3.406v8.47c0 1.888-1.516 3.436-3.408 3.436h-1.343l-.5 1.47.655.438c1.578 1.04 2.01 3.172.97 4.75l-4.658 7.03c-.78 1.184-2.186 1.713-3.5 1.47l-.093.312c1.347.613 2.218 2.024 2 3.563l-1.187 8.375c-.206 1.46-1.324 2.573-2.687 2.875v.062c1.16.11 2.243.78 2.78 1.906l3.656 7.658c.802 1.68.088 3.66-1.562 4.5l.562 1.313c.642-.135 1.318-.188 2-.188 5.293 0 9.53 4.255 9.53 9.532.002 5.275-4.236 9.562-9.53 9.562-5.293 0-9.562-4.288-9.562-9.563 0-3.396 1.768-6.336 4.437-8.03l-.53-1.22c-1.564.42-3.246-.298-3.97-1.813l-3.624-7.624c-.813-1.706-.113-3.75 1.594-4.562l.938-.438-.157-1.344-.436-.062c-1.873-.263-3.14-2.003-2.875-3.875l1.186-8.376c.263-1.872 1.97-3.202 3.844-2.938l.22.032.436-1.313-.5-.31c-1.577-1.043-1.978-3.174-.937-4.75l4.655-7.064c.75-1.136 2.054-1.64 3.314-1.47l.187-.56c-.863-.625-1.437-1.632-1.437-2.78v-8.47c0-1.197.608-2.26 1.532-2.875l-.126-.313c-1.393.497-2.995.046-3.907-1.218l-4.97-6.845c-1.074-1.49-.797-3.56.626-4.69l-1.126-1.624c-2.72 1.236-4.56 3.62-5.408 8.188v81.938L344 316.094h4.53v-5.313c-5.653-.01-10.72.01-16.374 0v5.315h5.406l-8.937 17.344-8.938-17.345h5.407v-5.313h-16.906v5.314h5.406l-8.844 17.344-8.844-17.344h5.406v-5.313h-17.187v5.314h5.375l-8.938 17.344-8.906-17.343h5.375v-5.313c-5.653.01-10.437-.01-16.09 0v5.314h4.56l-12.093 17.344V251.5c-.846-4.55-2.65-6.948-5.344-8.188l-1.156 1.657c1.397 1.132 1.692 3.174.625 4.654l-4.968 6.844c-.912 1.263-2.515 1.714-3.906 1.217l-.125.313c.925.613 1.532 1.678 1.532 2.875v8.47c0 1.148-.573 2.155-1.437 2.78l.188.563c1.26-.17 2.56.33 3.312 1.468l4.656 7.063c1.043 1.576.642 3.707-.936 4.75l-.5.31.437 1.314.22-.03c1.873-.265 3.58 1.065 3.844 2.937l1.186 8.375c.265 1.872-1.002 3.612-2.874 3.875l-.437.063-.157 1.343.937.438c1.706.814 2.408 2.857 1.594 4.563l-3.626 7.625c-.727 1.525-2.43 2.25-4 1.814l-.5 1.187c2.675 1.695 4.436 4.662 4.436 8.063 0 5.275-4.268 9.562-9.562 9.562s-9.53-4.287-9.53-9.562c0-5.277 4.237-9.53 9.53-9.53.682-.002 1.358.05 2 .186l.562-1.314c-1.65-.84-2.365-2.82-1.562-4.5l3.656-7.656c.537-1.126 1.62-1.795 2.78-1.905v-.063c-1.362-.3-2.48-1.415-2.686-2.875l-1.188-8.375c-.216-1.538.653-2.95 2-3.562l-.094-.344c-1.314.253-2.717-.25-3.5-1.437l-4.656-7.034c-1.042-1.577-.608-3.708.97-4.75l.655-.437-.5-1.47h-1.343c-1.89 0-3.406-1.548-3.406-3.437v-8.47c0-1.89 1.517-3.405 3.407-3.405h1.157l.656-1.69-.156-.093c-1.533-1.107-1.858-3.247-.75-4.78l4.937-6.876c1.01-1.4 2.89-1.813 4.376-1.03l.47-.657c-1.248-.187-2.613-.263-4.095-.28v-6.97zm19.22 7.812v16.125h16.906v-16.123H259.75zm24.375 0v16.125h16.906v-16.123h-16.904zm24.344 0v16.125h16.904v-16.123H308.47zm24.373 0v16.125h16.875v-16.123h-16.876zm-90.97 3.375c-.065.047-.13.11-.186.19l-2.657 3.687c.202-.002.397.048.595.125l.125.032c.835.322 1.26 1.258.938 2.094l-.72 1.844c.27.122.5.072.688-.188l3.97-5.468c.124-.175.138-.34.093-.5l-.346.5c-.512.735-1.515.917-2.25.406l-.125-.063c-.736-.51-.918-1.515-.407-2.25l.28-.407zm125.907.19l.126.22c.512.734.328 1.74-.406 2.25l-.125.06c-.735.51-1.738.33-2.25-.405l-.344-.5c-.044.16-.03.325.096.5l3.938 5.47c.188.258.44.308.718.186l-.717-1.843c-.323-.836.102-1.772.937-2.094l.125-.03c.2-.078.393-.128.594-.126l-2.69-3.687zm-130.686 15.28l-.53 1.314c-.326.836-1.26 1.26-2.095.937l-.127-.062c-.378-.146-.665-.42-.844-.75v5.282c0 .342.182.578.53.624l-.28-.906c-.283-.85.18-1.75 1.03-2.032l.156-.062c.85-.282 1.75.18 2.032 1.03l.124.376v-5.75zm135.312 0v5.75l.125-.374c.284-.85 1.183-1.313 2.034-1.03l.156.06c.85.283 1.312 1.182 1.03 2.033l-.28.905c.347-.046.53-.282.53-.625v-5.283c-.18.33-.466.604-.844.75l-.125.063c-.834.323-1.767-.1-2.09-.938l-.533-1.312zm-112.656 3.19v16.092h16.906V264.94H259.75zm24.375 0v16.092h16.906V264.94h-16.904zm24.344 0v16.092h16.904V264.94H308.47zm24.373 0v16.092h16.875V264.94h-16.876zm-92.78 11.5l.5 1.53c.28.85-.182 1.78-1.033 2.062l-.124.033c-.465.153-.95.077-1.344-.157l2.782 4.22c.08.122.176.207.28.25l-.655-2.032c-.284-.85.18-1.782 1.03-2.063l.124-.03c.32-.106.637-.116.938-.03l-2.438-3.72c-.018-.027-.043-.04-.063-.063zm129.374 0c-.02.022-.045.034-.063.06l-2.438 3.72c.3-.085.62-.075.938.03l.125.03c.85.283 1.31 1.214 1.03 2.065l-.656 2.03c.105-.04.2-.126.28-.25l2.783-4.218c-.395.234-.88.31-1.344.156l-.125-.03c-.852-.282-1.316-1.214-1.033-2.063l.5-1.533zM237 278.03c-.035.15.018.31.125.47l.094.125-.22-.594zm135.5 0l-.22.595.095-.125c.107-.16.16-.32.125-.47zm-112.75 8.908v16.125h16.906v-16.125H259.75zm24.375 0v16.125h16.906v-16.125h-16.904zm24.344 0v16.125h16.904v-16.125H308.47zm24.373 0v16.125h16.875v-16.125h-16.876zm-89.25 4.843c-.095.12-.12.28-.094.47l.937 6.69c.026.19.1.32.218.405l.188-1.688c.093-.892.89-1.53 1.78-1.437l.157.03c.388.04.716.213.97.47l-.5-3.595c-.155.466-.524.864-1.03 1.03l-.126.064c-.85.28-1.75-.183-2.03-1.034l-.47-1.406zm122.312 0l-.47 1.41c-.28.85-1.18 1.31-2.03 1.03l-.125-.063c-.507-.167-.875-.565-1.03-1.03l-.5 3.593c.254-.257.583-.43.97-.47l.155-.03c.89-.094 1.69.544 1.78 1.436l.19 1.688c.117-.085.19-.215.217-.406l.938-6.688c.027-.19 0-.35-.094-.47zm-122 15.19c-.03.04-.07.074-.094.125l-2.905 6.094c-.083.173-.088.324-.03.467l.31-.687c.353-.825 1.303-1.196 2.126-.845l.126.063c.825.35 1.227 1.302.875 2.125l-.155.406 1.938-4.065c-.255.116-.545.188-.844.156h-.126c-.89-.092-1.53-.89-1.438-1.78l.22-2.062zm121.688 0l.22 2.06c.09.89-.55 1.69-1.44 1.784h-.124c-.3.03-.59-.04-.845-.157l1.938 4.063-.156-.408c-.352-.822.052-1.773.875-2.125l.125-.062c.822-.35 1.773.02 2.125.844l.312.685c.057-.143.052-.294-.03-.47l-2.908-6.092c-.024-.05-.064-.085-.093-.125zm-128.75 15.437c-3.11 0-5.438 2.444-5.438 5.438 0 2.994 2.322 5.437 5.438 5.437 3.116 0 5.437-2.442 5.437-5.436 0-1.7-.75-3.22-1.968-4.22l-.5 1.188c-.352.823-1.302 1.195-2.125.844l-.125-.03c-.823-.352-1.194-1.302-.843-2.126l.467-1.063c-.11-.007-.23-.03-.344-.03zm135.812 0c-.113 0-.233.025-.344.03l.47 1.064c.35.825-.02 1.775-.843 2.126l-.125.03c-.825.352-1.805-.02-2.157-.842l-.5-1.157c-1.196 1-1.937 2.504-1.937 4.188 0 2.994 2.32 5.437 5.436 5.437s5.438-2.442 5.438-5.436c0-2.994-2.327-5.438-5.438-5.438z" clip-path="url(#b)" fill="#002147"/><path d="M437.146 401.687c-10.682 0-19.344 8.663-19.344 19.344 0 2.88.652 5.61 1.78 8.064 2.68-1.336 5.765-2.312 9.282-2.75-.985-1.53-1.563-3.355-1.563-5.312 0-5.432 4.41-9.844 9.844-9.844 5.43 0 9.844 4.412 9.844 9.844 0 1.956-.578 3.78-1.563 5.313 3.517.438 6.602 1.414 9.28 2.75 1.13-2.454 1.783-5.183 1.783-8.062 0-10.68-8.667-19.344-19.344-19.344z" fill="#002147"/><path d="M432.958 427.093c-19.912 0-26.065 16.723-31.718 22.376-5.53 5.53-19.12 62.984-19.72 65.53 1.807-1.5 3.86-2.79 6.095-3.906 11.053-5.512 27.133-6.704 48-6.78v-.032h3.093v.03c20.87.078 36.947 1.27 48 6.783 2.236 1.116 4.257 2.408 6.063 3.907-.6-2.546-14.22-60-19.75-65.53-5.652-5.654-11.775-22.376-31.687-22.376z" fill="#002147"/><path d="M436.615 505.25v.03c-41.413.078-63.73 4.586-65.032 35.845.162-.222.34-.446.532-.656.988-1.087 2.366-2.05 4.093-2.97 3.455-1.836 8.32-3.435 14.313-4.78 11.985-2.694 28.44-4.345 46.626-4.345 18.185 0 34.672 1.65 46.656 4.344 5.99 1.345 10.857 2.944 14.312 4.78 1.727.92 3.105 1.883 4.093 2.97.19.21.34.434.5.655-1.3-31.26-23.614-35.767-65.03-35.844v-.03h-1.062z" fill="#002147"/><path d="M437.146 529.343c-36.25 0-65.625 6.604-65.625 14.75 0 .12-.013.255 0 .376.8 7.41 25.92 13.454 58.095 14.28.05-2.7.816-5.148 2.093-7 1.322-1.916 3.236-3.22 5.438-3.22 2.202 0 4.147 1.304 5.47 3.22 1.276 1.85 2.012 4.3 2.06 7 32.7-.84 58.095-7.083 58.095-14.656 0-8.147-29.375-14.75-65.624-14.75z" fill="#002147"/><ellipse cx="394.202" cy="557.875" rx="6.556" ry="9.505" transform="translate(42.943 1.143)" fill="#002147"/></svg>
